<svg width="23" height="24" viewBox="0 0 23 24" fill="none" xmlns="http://www.w3.org/2000/svg">
<path d="M2 10.5C1.17157 10.5 0.5 11.1716 0.5 12C0.5 12.8284 1.17157 13.5 2 13.5V10.5ZM22.0607 13.0607C22.6464 12.4749 22.6464 11.5251 22.0607 10.9393L12.5147 1.3934C11.9289 0.807611 10.9792 0.807611 10.3934 1.3934C9.80761 1.97919 9.80761 2.92893 10.3934 3.51472L18.8787 12L10.3934 20.4853C9.80761 21.0711 9.80761 22.0208 10.3934 22.6066C10.9792 23.1924 11.9289 23.1924 12.5147 22.6066L22.0607 13.0607ZM2 13.5H21V10.5H2V13.5Z" fill="#435D8F"/>
</svg>
