<svg width="23" height="22" viewBox="0 0 23 22" fill="none" xmlns="http://www.w3.org/2000/svg">
<path d="M11.3106 0.559725C11.3719 0.37855 11.6281 0.37855 11.6894 0.559725L14.2604 8.15591C14.2879 8.23713 14.3641 8.2918 14.4499 8.2918H22.7519C22.9476 8.2918 23.0268 8.54387 22.8663 8.65584L16.1641 13.3305C16.0911 13.3814 16.0605 13.4744 16.089 13.5587L18.6523 21.1321C18.7142 21.3149 18.5068 21.4707 18.3485 21.3603L11.6144 16.6634C11.5457 16.6154 11.4543 16.6154 11.3856 16.6634L4.65153 21.3603C4.49321 21.4707 4.28578 21.3149 4.34767 21.1321L6.91096 13.5587C6.93949 13.4744 6.90891 13.3814 6.83594 13.3305L0.133729 8.65584C-0.0267978 8.54387 0.0524284 8.2918 0.248144 8.2918H8.55012C8.63587 8.2918 8.71208 8.23714 8.73956 8.15591L11.3106 0.559725Z" fill="#FFC239"/>
</svg>
